/* XPM */
static char * collect_xpm[] = {
"64 64 598 2",
"  	c #704F2F",
". 	c #7A5737",
"+ 	c #7A5738",
"@ 	c #7A5838",
"# 	c #7C5939",
"$ 	c #7F5B3B",
"% 	c #815D3C",
"& 	c #755433",
"* 	c #8F826F",
"= 	c #A99E8C",
"- 	c #A99F8C",
"; 	c #A99F8D",
"> 	c #A99E8D",
", 	c #AA9E8C",
"' 	c #ADA290",
") 	c #B2A895",
"! 	c #B6AB99",
"~ 	c #A69A87",
"{ 	c #916947",
"] 	c #A37754",
"^ 	c #8C6544",
"/ 	c #C8BEAB",
"( 	c #F3EBD7",
"_ 	c #D3CAB6",
": 	c #8F6847",
"< 	c #8B6544",
"[ 	c #C6BDA9",
"} 	c #D2C9B5",
"| 	c #8F6846",
"1 	c #8B6543",
"2 	c #C6BCA9",
"3 	c #8F6746",
"4 	c #8B6443",
"5 	c #C5BCA9",
"6 	c #D2C8B5",
"7 	c #C5BBA8",
"8 	c #D1C8B5",
"9 	c #8E6746",
"0 	c #8A6443",
"a 	c #C4BBA8",
"b 	c #A37753",
"c 	c #A27753",
"d 	c #7C7022",
"e 	c #58540E",
"f 	c #9E7B4A",
"g 	c #A47A52",
"h 	c #83623C",
"i 	c #B3AB99",
"j 	c #EFE7D4",
"k 	c #A17652",
"l 	c #403E05",
"m 	c #131305",
"n 	c #876641",
"o 	c #A8884B",
"p 	c #615E07",
"q 	c #575406",
"r 	c #C6C097",
"s 	c #474405",
"t 	c #121105",
"u 	c #867926",
"v 	c #A5824B",
"w 	c #676408",
"x 	c #706B09",
"y 	c #BFB98B",
"z 	c #A17752",
"A 	c #4E4C06",
"B 	c #796B26",
"C 	c #9E794C",
"D 	c #87762F",
"E 	c #595607",
"F 	c #6D6909",
"G 	c #938E6C",
"H 	c #D6CFB0",
"I 	c #F2EAD6",
"J 	c #A27752",
"K 	c #545106",
"L 	c #141304",
"M 	c #706026",
"N 	c #866D38",
"O 	c #575309",
"P 	c #696508",
"Q 	c #524F06",
"R 	c #656208",
"S 	c #5F5B07",
"T 	c #5C580F",
"U 	c #918D59",
"V 	c #EAE2CC",
"W 	c #A27852",
"X 	c #595606",
"Y 	c #141404",
"Z 	c #675725",
"` 	c #7E6437",
" .	c #666208",
"..	c #817C0B",
"+.	c #77730A",
"@.	c #3D3B05",
"#.	c #484506",
"$.	c #646108",
"%.	c #716D09",
"&.	c #7D7953",
"*.	c #EAE2CA",
"=.	c #5E5B06",
"-.	c #151404",
";.	c #5D4C25",
">.	c #A38843",
",.	c #8C7B2F",
"'.	c #3B3905",
").	c #5A5606",
"!.	c #545107",
"~.	c #4F4D06",
"{.	c #555207",
"].	c #585507",
"^.	c #484605",
"/.	c #8E8A53",
"(.	c #D4CDAD",
"_.	c #A37952",
":.	c #646006",
"<.	c #59540E",
"[.	c #A7834E",
"}.	c #696312",
"|.	c #504D07",
"1.	c #5F5C07",
"2.	c #686408",
"3.	c #747009",
"4.	c #7E790B",
"5.	c #837E0B",
"6.	c #8C860C",
"7.	c #908B0C",
"8.	c #938E0C",
"9.	c #928D0B",
"0.	c #615E0F",
"a.	c #E1DAB9",
"b.	c #655E15",
"c.	c #121104",
"d.	c #555206",
"e.	c #A6844C",
"f.	c #A6844B",
"g.	c #46420B",
"h.	c #615D08",
"i.	c #7B770A",
"j.	c #7E790A",
"k.	c #726E09",
"l.	c #84800B",
"m.	c #8B860C",
"n.	c #8C870C",
"o.	c #98920C",
"p.	c #96900C",
"q.	c #9D980D",
"r.	c #A49F0D",
"s.	c #9F990D",
"t.	c #87830A",
"u.	c #D2CBB1",
"v.	c #6A4F32",
"w.	c #111003",
"x.	c #403E06",
"y.	c #9F7A4C",
"z.	c #A08345",
"A.	c #454305",
"B.	c #5B5808",
"C.	c #7F7B0A",
"D.	c #7D790A",
"E.	c #6B6709",
"F.	c #7E7A0A",
"G.	c #89840B",
"H.	c #A09B0D",
"I.	c #9A940C",
"J.	c #A6A10E",
"K.	c #A8A30E",
"L.	c #9E990D",
"M.	c #918D0B",
"N.	c #BFB99B",
"O.	c #6E5532",
"P.	c #302F06",
"Q.	c #9A744C",
"R.	c #9B7D45",
"S.	c #444106",
"T.	c #585407",
"U.	c #7C780A",
"V.	c #797509",
"W.	c #86800B",
"X.	c #8F8A0C",
"Y.	c #9A950D",
"Z.	c #95910C",
"`.	c #ABA671",
" +	c #715932",
".+	c #121203",
"++	c #242305",
"@+	c #97704C",
"#+	c #9E7F45",
"$+	c #474406",
"%+	c #5D5908",
"&+	c #807B0A",
"*+	c #6C6909",
"=+	c #8A850B",
"-+	c #99940C",
";+	c #938F0C",
">+	c #B9B390",
",+	c #776033",
"'+	c #191804",
")+	c #171605",
"!+	c #9B8140",
"~+	c #A28248",
"{+	c #454307",
"]+	c #625F08",
"^+	c #827E0A",
"/+	c #807C0B",
"(+	c #736F09",
"_+	c #8A850C",
":+	c #96910C",
"<+	c #9C970D",
"[+	c #A19C0D",
"}+	c #8E8A0B",
"|+	c #CEC7B1",
"1+	c #7E6833",
"2+	c #030304",
"3+	c #958036",
"4+	c #534C14",
"5+	c #4A4706",
"6+	c #5A5706",
"7+	c #635F08",
"8+	c #686409",
"9+	c #7D790B",
"0+	c #847F0B",
"a+	c #8B860B",
"b+	c #87820A",
"c+	c #787409",
"d+	c #5D5906",
"e+	c #D8D1B2",
"f+	c #887333",
"g+	c #1B1B04",
"h+	c #010104",
"i+	c #8F7936",
"j+	c #A5834B",
"k+	c #6E6023",
"l+	c #424005",
"m+	c #676307",
"n+	c #5E5B07",
"o+	c #565407",
"p+	c #535006",
"q+	c #565307",
"r+	c #5D5A07",
"s+	c #656108",
"t+	c #575407",
"u+	c #514E05",
"v+	c #D3CCA5",
"w+	c #8E7A33",
"x+	c #201F04",
"y+	c #030305",
"z+	c #836D36",
"A+	c #6D582D",
"B+	c #807C09",
"C+	c #676308",
"D+	c #7E7A0B",
"E+	c #7B770B",
"F+	c #746F09",
"G+	c #6D6908",
"H+	c #706D08",
"I+	c #9A8833",
"J+	c #201F03",
"K+	c #060605",
"L+	c #785F36",
"M+	c #A3804D",
"N+	c #747008",
"O+	c #B2AD0F",
"P+	c #8D890A",
"Q+	c #7A750A",
"R+	c #625E07",
"S+	c #767209",
"T+	c #B0AB0E",
"U+	c #88840A",
"V+	c #BFB98F",
"W+	c #9A8933",
"X+	c #1A1A03",
"Y+	c #080805",
"Z+	c #75652A",
"`+	c #A37854",
" @	c #7F6D2E",
".@	c #938E0B",
"+@	c #B6B10F",
"@@	c #A7A20E",
"#@	c #84800A",
"$@	c #646007",
"%@	c #333204",
"&@	c #555314",
"*@	c #979265",
"=@	c #BFB995",
"-@	c #9B8933",
";@	c #1D1C03",
">@	c #090905",
",@	c #6F6A0A",
"'@	c #A37A52",
")@	c #836D34",
"!@	c #747108",
"~@	c #9F9A0D",
"{@	c #9F9B0D",
"]@	c #393705",
"^@	c #3C3B05",
"/@	c #373605",
"(@	c #353305",
"_@	c #353304",
":@	c #343304",
"<@	c #343204",
"[@	c #373505",
"}@	c #3B3A05",
"|@	c #88844D",
"1@	c #835E3E",
"2@	c #946B4A",
"3@	c #936B4A",
"4@	c #907A36",
"5@	c #212003",
"6@	c #0A0A05",
"7@	c #5A560A",
"8@	c #916F44",
"9@	c #5C5807",
"0@	c #948F0C",
"a@	c #918C0C",
"b@	c #8F890C",
"c@	c #78740A",
"d@	c #2D2C04",
"e@	c #6B6808",
"f@	c #85810A",
"g@	c #787509",
"h@	c #1D1B03",
"i@	c #0F0E03",
"j@	c #7C7909",
"k@	c #827E43",
"l@	c #D8CFBC",
"m@	c #D9D0BC",
"n@	c #DBD1BE",
"o@	c #E0D8C4",
"p@	c #E3DAC6",
"q@	c #9B8F7C",
"r@	c #B1A694",
"s@	c #B1A794",
"t@	c #B1A795",
"u@	c #AEA58F",
"v@	c #989078",
"w@	c #232203",
"x@	c #080905",
"y@	c #47440A",
"z@	c #9E9761",
"A@	c #8A8440",
"B@	c #615E0E",
"C@	c #827D0B",
"D@	c #86810B",
"E@	c #827E0B",
"F@	c #7F7B0B",
"G@	c #2B2A04",
"H@	c #232103",
"I@	c #0D0D02",
"J@	c #AAA60E",
"K@	c #2B2A03",
"L@	c #736D14",
"M@	c #7F5C3D",
"N@	c #805D3D",
"O@	c #825E3F",
"P@	c #856141",
"Q@	c #876343",
"R@	c #7D5B3C",
"S@	c #898462",
"T@	c #7D7909",
"U@	c #7E7A09",
"V@	c #837F0A",
"W@	c #88840B",
"X@	c #86820A",
"Y@	c #837E3E",
"Z@	c #CAC3A8",
"`@	c #7A7651",
" #	c #4D4A06",
".#	c #605D07",
"+#	c #636008",
"@#	c #5A5707",
"##	c #2B2904",
"$#	c #0D0C02",
"%#	c #272603",
"&#	c #786F1C",
"*#	c #916948",
"=#	c #D0C7B4",
"-#	c #E8E0C0",
";#	c #656321",
">#	c #ACA80E",
",#	c #A9A40E",
"'#	c #A8A30D",
")#	c #A29D0D",
"!#	c #7C783E",
"~#	c #E7DFC5",
"{#	c #84804F",
"]#	c #6F6B09",
"^#	c #6A6508",
"/#	c #272504",
"(#	c #D0C7B3",
"_#	c #A29D7A",
":#	c #55520F",
"<#	c #504E06",
"[#	c #7F7B3F",
"}#	c #726E45",
"|#	c #97920B",
"1#	c #757108",
"2#	c #89840C",
"3#	c #928C0C",
"4#	c #232204",
"5#	c #B5B00F",
"6#	c #A39E0D",
"7#	c #222103",
"8#	c #918D0C",
"9#	c #A9A50E",
"0#	c #212103",
"a#	c #D0C6B3",
"b#	c #9F9986",
"c#	c #726E0A",
"d#	c #76720A",
"e#	c #B1AC0E",
"f#	c #AFAB0E",
"g#	c #99930C",
"h#	c #86820B",
"i#	c #2B2903",
"j#	c #363404",
"k#	c #313004",
"l#	c #141302",
"m#	c #121102",
"n#	c #2E2D04",
"o#	c #323104",
"p#	c #1F1E03",
"q#	c #906947",
"r#	c #CFC6B2",
"s#	c #B2AC88",
"t#	c #6A6708",
"u#	c #605D08",
"v#	c #6C6809",
"w#	c #666207",
"x#	c #6C6908",
"y#	c #6E6A1E",
"z#	c #6C6808",
"A#	c #98930C",
"B#	c #8E890B",
"C#	c #211F03",
"D#	c #CFC5B2",
"E#	c #DED6BE",
"F#	c #5B5907",
"G#	c #757109",
"H#	c #C4BE96",
"I#	c #DED7AF",
"J#	c #878344",
"K#	c #8E890C",
"L#	c #AAA50E",
"M#	c #444204",
"N#	c #565305",
"O#	c #4D4B04",
"P#	c #161502",
"Q#	c #111002",
"R#	c #504E04",
"S#	c #F1E9D3",
"T#	c #A19B7C",
"U#	c #5A5607",
"V#	c #6C683B",
"W#	c #E8E0C9",
"X#	c #E2DABD",
"Y#	c #5E5B1D",
"Z#	c #95900C",
"`#	c #AEA90E",
" $	c #98940C",
".$	c #8F8B0B",
"+$	c #B7B20F",
"@$	c #A4A00D",
"#$	c #928D0C",
"$$	c #A6A20D",
"%$	c #1E1E03",
"&$	c #847B1C",
"*$	c #F2EAD5",
"=$	c #D9D2AA",
"-$	c #DCD5AA",
";$	c #E8E1C4",
">$	c #AFA98E",
",$	c #918B0C",
"'$	c #B1AC0F",
")$	c #2A2904",
"!$	c #6B6807",
"~$	c #272604",
"{$	c #887433",
"]$	c #906847",
"^$	c #E8E1C8",
"/$	c #B3AD88",
"($	c #5C5A07",
"_$	c #8D880C",
":$	c #958F0C",
"<$	c #514E06",
"[$	c #353404",
"}$	c #ADA90E",
"|$	c #444105",
"1$	c #A08147",
"2$	c #E4DDC7",
"3$	c #6C684B",
"4$	c #3F3C05",
"5$	c #938D0C",
"6$	c #7B760A",
"7$	c #302E04",
"8$	c #484504",
"9$	c #9D990C",
"0$	c #585506",
"a$	c #333104",
"b$	c #746626",
"c$	c #A19C77",
"d$	c #4C4A06",
"e$	c #8D870C",
"f$	c #5B5807",
"g$	c #514F05",
"h$	c #1A1903",
"i$	c #121103",
"j$	c #4D4B05",
"k$	c #3C3A04",
"l$	c #5A5114",
"m$	c #A17E4B",
"n$	c #827F28",
"o$	c #646008",
"p$	c #737009",
"q$	c #7C770A",
"r$	c #73700A",
"s$	c #494605",
"t$	c #282604",
"u$	c #2F2E04",
"v$	c #363505",
"w$	c #746821",
"x$	c #A07B4C",
"y$	c #CEC5B2",
"z$	c #858228",
"A$	c #565206",
"B$	c #706C08",
"C$	c #504D06",
"D$	c #363405",
"E$	c #615E08",
"F$	c #4D4A09",
"G$	c #9D8044",
"H$	c #A37853",
"I$	c #7D780B",
"J$	c #686508",
"K$	c #4A4806",
"L$	c #4E4B06",
"M$	c #4F4C06",
"N$	c #494706",
"O$	c #625E08",
"P$	c #85800B",
"Q$	c #56510E",
"R$	c #A27754",
"S$	c #858128",
"T$	c #595608",
"U$	c #524F07",
"V$	c #5F5C08",
"W$	c #6E6A09",
"X$	c #56500E",
"Y$	c #F3EBD6",
"Z$	c #8E8A4D",
"`$	c #706C09",
" %	c #6A6609",
".%	c #5C5908",
"+%	c #837F0B",
"@%	c #57520E",
"#%	c #CDC6AD",
"$%	c #79750A",
"%%	c #666308",
"&%	c #5E5B08",
"*%	c #615D07",
"=%	c #867927",
"-%	c #D5CEB5",
";%	c #848065",
">%	c #5C5907",
",%	c #615818",
"'%	c #8A7139",
")%	c #A37A51",
"!%	c #E3DCC4",
"~%	c #BCB596",
"{%	c #ADA790",
"]%	c #96916F",
"^%	c #6C681E",
"/%	c #5F5C17",
"(%	c #5D590B",
"_%	c #65600C",
":%	c #7B7416",
"<%	c #775C37",
"[%	c #887137",
"}%	c #987746",
"|%	c #A57E50",
"1%	c #C6BCAA",
"2%	c #896342",
"3%	c #C7BDAB",
"4%	c #CFC6B3",
"5%	c #C6BDAB",
"6%	c #CFC5B3",
"7%	c #B5AB99",
"8%	c #D3CAB7",
"9%	c #D4CAB7",
"0%	c #D6CDB9",
"a%	c #DCD3C0",
"b%	c #DFD6C2",
"c%	c #B9AE9C",
"d%	c #936B49",
"e%	c #966D4B",
"f%	c #976E4C",
"g%	c #876241",
"  . . + + + + + @ + @ + + + + + + + + + + + @ + + + . @ # $ % & * = = = = = = - ; ; ; ; > ; ; ; ; ; ; ; ; ; ; > = = = , ' ) ! ~ ",
"{ ] ] ] ] ] ] ] ] ] ] ] ] ] ] ] ] ] ] ] ] ] ] ] ] ] ] ] ] ] ] ^ / ( ( ( ( ( ( ( ( ( ( ( ( ( ( ( ( ( ( ( ( ( ( ( ( ( ( ( ( ( ( _ ",
": ] ] ] ] ] ] ] ] ] ] ] ] ] ] ] ] ] ] ] ] ] ] ] ] ] ] ] ] ] ] < [ ( ( ( ( ( ( ( ( ( ( ( ( ( ( ( ( ( ( ( ( ( ( ( ( ( ( ( ( ( ( } ",
"| ] ] ] ] ] ] ] ] ] ] ] ] ] ] ] ] ] ] ] ] ] ] ] ] ] ] ] ] ] ] 1 2 ( ( ( ( ( ( ( ( ( ( ( ( ( ( ( ( ( ( ( ( ( ( ( ( ( ( ( ( ( ( } ",
"3 ] ] ] ] ] ] ] ] ] ] ] ] ] ] ] ] ] ] ] ] ] ] ] ] ] ] ] ] ] ] 4 5 ( ( ( ( ( ( ( ( ( ( ( ( ( ( ( ( ( ( ( ( ( ( ( ( ( ( ( ( ( ( 6 ",
"3 ] ] ] ] ] ] ] ] ] ] ] ] ] ] ] ] ] ] ] ] ] ] ] ] ] ] ] ] ] ] 4 7 ( ( ( ( ( ( ( ( ( ( ( ( ( ( ( ( ( ( ( ( ( ( ( ( ( ( ( ( ( ( 8 ",
"3 ] ] ] ] ] ] ] ] ] ] ] ] ] ] ] ] ] ] ] ] ] ] ] ] ] ] ] ] ] ] 4 7 ( ( ( ( ( ( ( ( ( ( ( ( ( ( ( ( ( ( ( ( ( ( ( ( ( ( ( ( ( ( 8 ",
"9 ] ] ] ] ] ] ] ] ] ] ] ] ] ] ] ] ] ] ] ] ] ] ] ] ] ] ] ] ] ] 0 7 ( ( ( ( ( ( ( ( ( ( ( ( ( ( ( ( ( ( ( ( ( ( ( ( ( ( ( ( ( ( 8 ",
"9 ] ] ] ] ] ] ] ] ] ] ] ] ] ] ] ] ] ] ] ] ] ] ] ] ] ] ] ] ] ] 0 a ( ( ( ( ( ( ( ( ( ( ( ( ( ( ( ( ( ( ( ( ( ( ( ( ( ( ( ( ( ( 8 ",
"9 ] ] ] ] ] ] ] ] ] ] ] ] ] ] ] ] ] ] ] ] ] ] ] ] ] ] ] ] ] ] 0 a ( ( ( ( ( ( ( ( ( ( ( ( ( ( ( ( ( ( ( ( ( ( ( ( ( ( ( ( ( ( 8 ",
"9 ] ] ] ] ] ] ] ] ] ] ] ] ] ] ] ] ] ] ] ] ] ] ] ] ] ] ] ] ] ] 0 a ( ( ( ( ( ( ( ( ( ( ( ( ( ( ( ( ( ( ( ( ( ( ( ( ( ( ( ( ( ( 8 ",
"9 ] ] ] ] ] ] ] ] ] ] ] ] ] ] ] ] ] ] ] b ] ] ] ] ] ] ] ] ] ] 0 a ( ( ( ( ( ( ( ( ( ( ( ( ( ( ( ( ( ( ( ( ( ( ( ( ( ( ( ( ( ( 8 ",
"9 ] ] ] ] ] ] ] ] ] ] ] ] ] ] ] ] ] c d e f ] ] ] ] ] ] ] ] g h i j ( ( ( ( ( ( ( ( ( ( ( ( ( ( ( ( ( ( ( ( ( ( ( ( ( ( ( ( ( 8 ",
"9 ] ] ] ] ] ] ] ] ] ] ] ] ] ] ] ] ] k l m n ] ] ] ] ] ] ] ] o p q r ( ( ( ( ( ( ( ( ( ( ( ( ( ( ( ( ( ( ( ( ( ( ( ( ( ( ( ( ( 8 ",
"9 ] ] ] ] ] ] ] ] ] ] ] ] ] ] ] ] ] k s t u ] ] ] ] ] ] ] ] v w x y ( ( ( ( ( ( ( ( ( ( ( ( ( ( ( ( ( ( ( ( ( ( ( ( ( ( ( ( ( 8 ",
"9 ] ] ] ] ] ] ] ] ] ] ] ] ] ] ] ] ] z A m B ] ] ] ] ] ] ] C D E F G H I ( ( ( ( ( ( ( ( ( ( ( ( ( ( ( ( ( ( ( ( ( ( ( ( ( ( ( 8 ",
"9 ] ] ] ] ] ] ] ] ] ] ] ] ] ] ] ] ] J K L M ] ] ] ] ] ] N O P Q R S T U V ( ( ( ( ( ( ( ( ( ( ( ( ( ( ( ( ( ( ( ( ( ( ( ( ( ( 8 ",
"9 ] ] ] ] ] ] ] ] ] ] ] ] ] ] ] ] ] W X Y Z ] ] ] ] ] `  ...+.@.#.$...%.&.*.( ( ( ( ( ( ( ( ( ( ( ( ( ( ( ( ( ( ( ( ( ( ( ( ( 8 ",
"9 ] ] ] ] ] ] ] ] ] ] ] ] ] ] ] ] ] W =.-.;.] ] ] >.,.'.).q !.~.~.{.].X ^./.(.( ( ( ( ( ( ( ( ( ( ( ( ( ( ( ( ( ( ( ( ( ( ( ( 8 ",
"9 ] ] ] ] ] ] ] ] ] ] ] ] ] ] ] ] ] _.:.L <.[.] ] }.|.].1.2.3.4.5.6.7.8.9.8.0.a.( ( ( ( ( ( ( ( ( ( ( ( ( ( ( ( ( ( ( ( ( ( ( 8 ",
"9 ] ] ] ] ] ] ] ] ] ] ] ] ] ] ] ] ] _.b.c.d.e.] f.g.h.i.j.k.l.m.n.o.p.q.r.s.t.u.( ( ( ( ( ( ( ( ( ( ( ( ( ( ( ( ( ( ( ( ( ( ( 8 ",
"9 ] ] ] ] ] ] ] ] ] ] ] ] ] ] ] ] ] ] v.w.x.y.] z.A.B.C.D.E.F.G.n.H.I.J.K.L.M.N.( ( ( ( ( ( ( ( ( ( ( ( ( ( ( ( ( ( ( ( ( ( ( 8 ",
"9 ] ] ] ] ] ] ] ] ] ] ] ] ] ] ] ] ] ] O.w.P.Q.] R.S.T.D.U.R V.W.X.J.Y.J.K.L.Z.`.( ( ( ( ( ( ( ( ( ( ( ( ( ( ( ( ( ( ( ( ( ( ( 8 ",
"9 ] ] ] ] ] ] ] ] ] ] ] ] ] ] ] ] ] ]  +.+++@+] #+$+%+&+j.*+C.=+n.q.-+J.K.L.;+>+( ( ( ( ( ( ( ( ( ( ( ( ( ( ( ( ( ( ( ( ( ( ( 8 ",
"9 ] ] ] ] ] ] ] ] ] ] ] ] ] ] ] ] ] ] ,+'+)+!+] ~+{+]+^+/+(+l.m._+:+p.<+[+s.}+|+( ( ( ( ( ( ( ( ( ( ( ( ( ( ( ( ( ( ( ( ( ( ( 8 ",
"9 ] ] ] ] ] ] ] ] ] ] ] ] ] ] ] ] ] ] 1+'+2+3+] ] 4+5+6+7+8+3.9+0+m.a+=+b+c+d+e+( ( ( ( ( ( ( ( ( ( ( ( ( ( ( ( ( ( ( ( ( ( ( 8 ",
"9 ] ] ] ] ] ] ] ] ] ] ] ] ] ] ] ] ] ] f+g+h+i+] ] j+k+l+m+n+o+p+p+q+r+s+t+u+v+( ( ( ( ( ( ( ( ( ( ( ( ( ( ( ( ( ( ( ( ( ( ( ( 8 ",
"9 ] ] ] ] ] ] ] ] ] ] ] ] ] ] ] ] ] ] w+x+y+z+] ] ] A+B+C+..D+E+E+9+/+F+G+H+V ( ( ( ( ( ( ( ( ( ( ( ( ( ( ( ( ( ( ( ( ( ( ( ( 8 ",
"9 ] ] ] ] ] ] ] ] ] ] ] ] ] ] ] ] ] ] I+J+K+L+] ] M+N+O+P+r+3./+..Q+R+S+T+U+V+( ( ( ( ( ( ( ( ( ( ( ( ( ( ( ( ( ( ( ( ( ( ( ( 8 ",
"9 ] ] ] ] ] ] ] ] ] ] ] ] ] ] ] ] ] ] W+X+Y+Z+`+]  @.@+@+@@@#@N+$@%@G+^+F.3.&@*@*@*@*@*@*@=@( ( ( ( ( ( ( ( ( ( ( ( ( ( ( ( ( 8 ",
"9 ] ] ] ] ] ] ] ] ] ] ] ] ] ] ] ] ] ] -@;@>@,@'@)@!@~@{@L.q.q.q.l.]@^@/@(@_@_@:@<@(@[@}@l |@( ( ( ( ( ( ( ( ( ( ( ( ( ( ( ( ( 8 ",
"1@2@2@2@2@2@2@2@2@2@2@2@2@3@2@2@2@2@2@4@5@6@7@8@9@:+p.0@a@7.7.b@c@d@e@f@f@g@h@i@e@f@f@j@d@k@l@l@l@l@l@l@l@l@l@l@l@l@l@m@n@o@p@7 ",
"q@r@r@r@r@s@s@s@s@s@s@s@s@s@s@t@t@t@u@v@w@x@y@z@A@B@C@D@D@E@F@F@F G@9.+@+@r.H@I@M.+@+@J@K@L@M@M@M@M@M@M@M@M@M@M@M@M@M@N@O@P@Q@R@",
"8 ( ( ( ( ( ( ( ( ( ( ( ( ( ( ( ( ( S@T@U@V@W@X@Y@Z@`@ #.#+#R w @###9.+@+@r.H@$#M.+@+@J@%#&#] ] ] ] ] ] ] ] ] ] ] ] ] ] ] ] ] *#",
"=#( ( ( ( ( ( ( ( ( ( ( ( ( ( ( ( -#;#T+>#,#'#)#!#~#{#s ]#P ^#w q+/#9.+@+@r.H@$#M.+@+@J@w@&#] ] ] ] ] ] ] ] ] ] ] ] ] ] ] ] ] { ",
"(#( ( ( ( ( ( ( ( ( ( ( ( ( ( ( ( ( _#:#<#$. .5+[#}#|#1#..2#b@3#j.4#M.5#5#6#7#$#8#5#5#9#0#&#] ] ] ] ] ] ] ] ] ] ] ] ] ] ] ] ] { ",
"a#( ( ( ( ( ( ( ( ( ( ( ( ( ( ( ( ( I b#j.c#d#d#X@e#f#H+..3#g#L.h#5@i#j#j#k#l#m#n#j#j#o#p#&#] ] ] ] ] ] ] ] ] ] ] ] ] ] ] ] ] q#",
"r#( ( ( ( ( ( ( ( ( ( ( ( ( ( ( ( ( ( s#t#u# .v#w#x#y#z#D@A#~@@@B#C#m#m#m#m#m#m#m#m#m#m#;@&#] ] ] ] ] ] ] ] ] ] ] ] ] ] ] ] ] q#",
"D#( ( ( ( ( ( ( ( ( ( ( ( ( ( ( ( ( ( E#F#G#c@z#H#I#( J#K#L.L#+@:+C#M#N#N#O#P#Q#M#N#N#R#p#&#] ] ] ] ] ] ] ] ] ] ] ] ] ] ] ] ] q#",
"D#( ( ( ( ( ( ( ( ( ( ( ( ( ( ( ( ( ( S#T#U#r+V#W#( X#Y#Z#s.`#+@ $5@.$+$+$@$H@$##$+$+$$$%$&$] ] ] ] ] ] ] ] ] ] ] ] ] ] ] ] ] q#",
"D#( ( ( ( ( ( ( ( ( ( ( ( ( ( ( ( ( ( ( *$=$-$;$( I >$S+,$q.[+'$[+)$!$+$+@r.H@$#M.+@+@U+~${$] ] ] ] ] ] ] ] ] ] ] ] ] ] ] ] ] ]$",
"D#( ( ( ( ( ( ( ( ( ( ( ( ( ( ( ( ( ( ( ( ( ( ( ^$/$($C@_$:$q.~@q.<$[$H.+@r.H@$#M.+@}$|$_@1$] ] ] ] ] ] ] ] ] ] ] ] ] ] ] ] ] ]$",
"D#( ( ( ( ( ( ( ( ( ( ( ( ( ( ( ( ( ( ( ( ( ( 2$3$4$(+D+D@_$5$o.g#6$7$8$9$6#H@$#M.@@0$a$b$b ] ] ] ] ] ] ] ] ] ] ] ] ] ] ] ] ] ]$",
"D#( ( ( ( ( ( ( ( ( ( ( ( ( ( ( ( ( ( ( ( ( ( c$#@d$2.+.D+0+2#e$e$m.f$k#_@g$h$i$j$k$<@l$m$] ] ] ] ] ] ] ] ] ] ] ] ] ] ] ] ] ] ]$",
"D#( ( ( ( ( ( ( ( ( ( ( ( ( ( ( ( ( ( ( ( ( I n$c+B#9@Q o$p$i.4.D+q$r$s$t$u$v$[@<@@.w$x$] ] ] ] ] ] ] ] ] ] ] ] ] ] ] ] ] ] ] ]$",
"y$( ( ( ( ( ( ( ( ( ( ( ( ( ( ( ( ( ( ( ( ( I z$s+A$B$3.C+d.<$C$<$p+X 2.6$s+D$E$F$G$H$] ] ] ] ] ] ] ] ] ] ] ] ] ] ] ] ] ] ] ] ]$",
"D#( ( ( ( ( ( ( ( ( ( ( ( ( ( ( ( ( ( ( ( ( I z$I$9+J$C$l K$L$A M$Q M$l+N$O$c@P$Q$R$] ] ] ] ] ] ] ] ] ] ] ] ] ] ] ] ] ] ] ] ] ]$",
"D#( ( ( ( ( ( ( ( ( ( ( ( ( ( ( ( ( ( ( ( ( I S$6$D++.]#J$]+T$U$|.].V$J$W$G#E+0+X$R$] ] ] ] ] ] ] ] ] ] ] ] ] ] ] ] ] ] ] ] ] ]$",
"D#( ( ( ( ( ( ( ( ( ( ( ( ( ( ( ( ( ( ( ( ( Y$Z$6$D++.`$ %+#.%t+q+B.u#2.F G#E++%@%R$] ] ] ] ] ] ] ] ] ] ] ] ] ] ] ] ] ] ] ] ] ]$",
"D#( ( ( ( ( ( ( ( ( ( ( ( ( ( ( ( ( ( ( ( ( ( #%0$$%c@(+v#%%u#&%&%u#R  %%.+.9+*%=%] ] ] ] ] ] ] ] ] ] ] ] ] ] ] ] ] ] ] ] ] ] ]$",
"D#( ( ( ( ( ( ( ( ( ( ( ( ( ( ( ( ( ( ( ( ( ( ( -%;%>%n+ . .$.]+E$+#$. .E$t+,%'%)%] ] ] ] ] ] ] ] ] ] ] ] ] ] ] ] ] ] ] ] ] ] ]$",
"D#( ( ( ( ( ( ( ( ( ( ( ( ( ( ( ( ( ( ( ( ( ( ( ( Y$!%~%{%]%^%/%(%_%:%<%[%}%|%] ] ] ] ] ] ] ] ] ] ] ] ] ] ] ] ] ] ] ] ] ] ] ] ]$",
"r#( ( ( ( ( ( ( ( ( ( ( ( ( ( ( ( ( ( ( ( ( ( ( ( ( ( ( ( Y$I 1%2%b H$] ] ] ] ] ] ] ] ] ] ] ] ] ] ] ] ] ] ] ] ] ] ] ] ] ] ] ] ]$",
"D#( ( ( ( ( ( ( ( ( ( ( ( ( ( ( ( ( ( ( ( ( ( ( ( ( ( ( ( ( ( 3%2%] ] ] ] ] ] ] ] ] ] ] ] ] ] ] ] ] ] ] ] ] ] ] ] ] ] ] ] ] ] ]$",
"D#( ( ( ( ( ( ( ( ( ( ( ( ( ( ( ( ( ( ( ( ( ( ( ( ( ( ( ( ( ( 3%2%] ] ] ] ] ] ] ] ] ] ] ] ] ] ] ] ] ] ] ] ] ] ] ] ] ] ] ] ] ] ]$",
"D#( ( ( ( ( ( ( ( ( ( ( ( ( ( ( ( ( ( ( ( ( ( ( ( ( ( ( ( ( ( 3%2%] ] ] ] ] ] ] ] ] ] ] ] ] ] ] ] ] ] ] ] ] ] ] ] ] ] ] ] ] ] ]$",
"D#( ( ( ( ( ( ( ( ( ( ( ( ( ( ( ( ( ( ( ( ( ( ( ( ( ( ( ( ( ( 3%2%] ] ] ] ] ] ] ] ] ] ] ] ] ] ] ] ] ] ] ] ] ] ] ] ] ] ] ] ] ] ]$",
"D#( ( ( ( ( ( ( ( ( ( ( ( ( ( ( ( ( ( ( ( ( ( ( ( ( ( ( ( ( ( 3%2%] ] ] ] ] ] ] ] ] ] ] ] ] ] ] ] ] ] ] ] ] ] ] ] ] ] ] ] ] ] ]$",
"4%( ( ( ( ( ( ( ( ( ( ( ( ( ( ( ( ( ( ( ( ( ( ( ( ( ( ( ( ( ( 5%2%] ] ] ] ] ] ] ] ] ] ] ] ] ] ] ] ] ] ] ] ] ] ] ] ] ] ] ] ] ] ]$",
"6%( ( ( ( ( ( ( ( ( ( ( ( ( ( ( ( ( ( ( ( ( ( ( ( ( ( ( ( ( ( 5%2%] ] ] ] ] ] ] ] ] ] ] ] ] ] ] ] ] ] ] ] ] ] ] ] ] ] ] ] ] ] ]$",
"6%( ( ( ( ( ( ( ( ( ( ( ( ( ( ( ( ( ( ( ( ( ( ( ( ( ( ( ( ( ( 3%2%] ] ] ] ] ] ] ] ] ] ] ] ] ] ] ] ] ] ] ] ] ] ] ] ] ] ] ] ] ] ]$",
"4%( ( ( ( ( ( ( ( ( ( ( ( ( ( ( ( ( ( ( ( ( ( ( ( ( ( ( ( ( ( 3%2%] ] ] ] ] ] ] ] ] ] ] ] ] ] ] ] ] ] ] ] ] ] ] ] ] ] ] ] ] ] ]$",
"4%( ( ( ( ( ( ( ( ( ( ( ( ( ( ( ( ( ( ( ( ( ( ( ( ( ( ( ( ( ( 5%2%] ] ] ] ] ] ] ] ] ] ] ] ] ] ] ] ] ] ] ] ] ] ] ] ] ] ] ] ] ] ]$",
"7%8%8%8%8%8%8%8%8%8%8%8%8%8%8%8%8%8%8%8%8%8%8%8%8%8%8%9%0%a%b%c%# *#*#*#*#*#*#*#*#*#*#*#*#*#*#*#*#*#*#*#*#*#*#*#*#*#*#*#d%e%f%g%"};
