/* XPM */
static char *_fbc5b5cc3b44de4bfbf0a2b5577f6a9bEcXCG6rX8dHz8Wi[] = {
/* columns rows colors chars-per-pixel */
"64 64 44 1 ",
"  c #181C37",
". c #043B5D",
"X c #29344F",
"o c #174F70",
"O c #384964",
"+ c #853C42",
"@ c #885058",
"# c #AD544C",
"$ c #29A638",
"% c #469737",
"& c #4DB933",
"* c #519F4F",
"= c #57BD4B",
"- c #B6D927",
"; c #FAB66A",
": c #018192",
"> c #158C9E",
", c #6B96AA",
"< c #719FB3",
"1 c #64A1B8",
"2 c #6BA8BF",
"3 c #00B7EF",
"4 c #14BBEF",
"5 c #25BFEF",
"6 c #6ABDCF",
"7 c #34C2EF",
"8 c #63CDEB",
"9 c #6ACEEB",
"0 c #6ACEEC",
"q c #70CFEC",
"w c #7AD8FA",
"e c #92A1AE",
"r c #FBEDBC",
"t c #86CEDF",
"y c #B3DEDE",
"u c #B5DFDD",
"i c #B8DFDC",
"p c #BCE0D9",
"a c #86D4EA",
"s c #88D5EA",
"d c #99D9EA",
"f c #A2DBE6",
"g c #A4DBE5",
"h c #EFEAC3",
/* pixels */
"wwwwwwwwwwwwwwwwwwwwwwwwwwwwwwwwwwwwwwwwwwwwwwwwwwwwwwwwwwwwwwww",
"wwwwwwwwwwwwwwwwwwwwwwwwwwwwwwwwwwwwwwwwwwwwwwwwwwwwwwwwwwwwwwww",
"wwwwwwwwwwwwwwwwwwwwwwwwwwwwwwwwwwwwwwwwwwwwwwwwwwwwwwwwwwwwwwww",
"wwwwwwwwwwwwwwwwwwwwwwwwwwwwwwwwwwwwwwwwwwwwwwwwwwwwwwwwwwwwwwww",
"wwwwwwwwwwwwwwwwwwwwwwwwwwwwwwwwwwwwwwwwwwwwwwwwwwwwwwwwwwwwwwww",
"wwwwwwwwwwwwwwwwwwwwwwwwwwwwwwwwwwwwwwwwwwwwwwwwwwwwwwwwwwwwwwww",
"wwwwwwwwwwwwwwwwwwwwwwwwwwwwwwwwwwwwwwwwwwwwwwwwwwwwwwwwwwwwwwww",
"wwwwwwwwwwwwwwwwwwwwwwwwwwwwwwwwwwwwwwwwwwwwwwwwwwwwwwwwwwwwwwww",
"wwwwwwwwwwwwwwwwwwwwwwwwwwwwwwwwwwwwwwwwwwwwwwwwwwwwwwwwwwwwwwww",
"wwwwwwwwwwwwwwwwwwwwwwwwwww-wwwwwwwwww&wwwwwwwwwwwwwwwwwwwwwwwww",
"wwwww&wwwwwwwwwwwwww--------wwwwwwwww-----$$$&wwwwwwwwwwwwwwwwww",
"wwww-----$$$&wwwwwwwww:::---&$$wwww----&&...wwwwwwwwwwwwww-wwwww",
"ww----&&...wwwwwwwwwww:::---&$$wwww----&&...wwwwwww--------wwwww",
"ww----&&...wwwwwwwwwwwwww:::-&&:ww----...wwwwwwwwwwww:::---&$$ww",
"w----...wwwwwwwwwwwwwwwwwwww---%ww---.wwwwwwwwwwwwwww:::---&$$ww",
"w---.wwwwwwwwwwwwwwwwwwwwww..--:&&-....wwwwwwwwwwwwwwwww:::-&&:w",
"&-....wwwwwwwwwwwwww-----::-$..-..:...---&ww&&wwwwwwwwwwwww---%w",
".:...---&ww&&wwwwwww-----::-$..-..:...---&ww&&wwwwwwwwwwww..--:&",
".:...---&ww&&ww----------&&. ::$::$    ---::::ww$ww-----::-$..-.",
":$    ---::::ww$w---&...----:  .$$   .-$$... .$$www-----::-$..-.",
"$   .-$$... .$$--:::.-......$.. .. ..&......-.----------&&. ::$:",
". ..&......-...:.w-------..&... ..   ....&&&:------&...----:  .$",
".   ....&&&:--- ::----&&&%%.   .      ....:::$--:::.-......$.. .",
"     ....:::$---..----&&&%%.   .      ....:::-..--------..&... .",
"     ....:::$---..&&-:::...::$$   :---&::....:$$-----&&&%%.   . ",
" :---&::....$$$:-&  .   .--&:...  -&&----:   :  -----&&&%%.   . ",
" -&&----:   .  :::  .----$$$:..   .&&$-&&-..- &&-&&-:::...::$$  ",
" .&&$-&&-..-   .:::ww:---$$..      ...&..-...---&  .   .--&:... ",
"  ...&..-...ww%   :ww:---$$..      ...&..-...-$$.  .----$$$:..  ",
"  ...&..-...ww%   :w:----..    +  +   .::.&&.%..w  ::---$$..    ",
" +   .::.&&..33   ::----$   3  ++++  3   ...%%..333::---$$..    ",
"++  3   ...%.33333:::-$$.  33   ++   33  ...%%..333:----..    + ",
"+   33  ...%.33333::-....   333#  +333   3...:  3::----$   3  ++",
" +333X  3...:33333::-....   333#  +333   3...:333:::-$$.  33   +",
" +343  X3..o:34334::..  334 333 ++ 333 33333 :333::-....   333# ",
"+ 443<33443 >33433::&. XX333333+## 3334433 X .334::-.... XX333# ",
"# 3844384XO<o3q439:>=o X4383343;##+344333433 .433::..  443 333 +",
"#+833d38493 13383433>o388343333+;; 4548847483*548::=.XXO488344+#",
"; 3ddddds88d%9d40d4a:24833d3834;##+38834383334833::=.  8833333;#",
"#+3dddddd3ddddddddd3t.3d3ddd38d;##+883ddaa4d5s39d3q>o8884dd884@;",
"#+4ddddddddddddddddd88ddddddd8d#;; 33dddd8ddd88ddd3t.333dddd88;#",
";,ddddddddddddddddddddddddddddd;++ 3ddddddddddddddd6.d3dddddd8;#",
"+ rgpurddddddgdrhdddddddddddddr#;;+hhdddddddd4dddd83ddd4dddd33#;",
";+rrrupfpdddppupuudddrrdpuurrrr;++eprrddddddadddddidddddpddhhr;+",
"++rrrrphrpdhhpuppirdpupurrhrppr;+++rpgfuddduhrdddrhrdddpgfurrr#;",
"++rrrrrrppurrrrrrppurrrhrpprrrr#;; rrphhpdpyrppdhupprdrhrhhpgp;+",
"; rrrrrrrrhrpprrrrrhrpprrrrrrrr;##+rrrrppurrrppurrrppurrrrrrrr;+",
"#+rrrrrrrrrrrrrrrrrrrrrrrrrrrrr#++ rrrrrrhrpprrhrpprrhrpprrrrr#;",
"+ rrrrrrrrrrrrrrrrrrrrrrrrrrrrr;##+rrrrrrrrrrrrrrrrrrrrrrrrrrr;#",
"#+rrrrrrrrrrrrrrrrrrrrrrrrrrrrr#;;+rrrrrrrrrrrrrrrrrrrrrrrrrrr#+",
";+rrrrrrrrrrrrrrrrrrrrrrrrrrrrr#;;+rrrrrrrrrrrrrrrrrrrrrrrrrrr;#",
";+rrrrrrrrrrrrrrrrrrrrrrrrrrrrr;++ rrrrrrrrrrrrrrrrrrrrrrrrrrr#;",
"+ rrrrrrrrrrrrrrrrrrrrrrrrrrrrr#;;+rrrrrrrrrrrrrrrrrrrrrrrrrrr#;",
";+rrrrrrrrrrrrrrrrrrrrrrrrrrrrr;## rrr&rrrrrrrrrrrrrrrrrrrrrrr;+",
"# rrr&rrrrrrrrrrrrrrrr&&rrr&rrr+   rrrr..r$$rrrrrrrrrrrrrrrrrr#;",
"  rrrr..r$$rrrrrrrrrrr&&rrr&rrr+   rrrr..r$$rrrrrrrrrrrrrrrrrr;#",
"  rrrr..r$$rrrrrrrrrrrrrrrr-:rr;##+rr....r..rrrrrrrrr&&rrr&rrr+ ",
"#+rr....r..rrrrrrrrrr&..r--.-$$+++ ..&....&&.rrrrrrrr&&rrr&rrr+ ",
"+ ..&....&&.rrrrrr&&rr--.--&.$$+++   .%..%..&.rrrrrrrrrrrr-:rr;#",
"+   .%..%..&.rrrrrrrr-...$$.;..r++r..%.;;....rrr.rrr&..r--.-$$++",
"+r..%.;;....rrr.rrrrr-...$$.;..r++r..%.;;....rrr.&&rr--.--&.$$++",
"+r..%.;;....rrr.rr;;;r;;;rrrrrrrrr#rr;;+++++#.##;;;#-...$$.;..r+",
"r#rr;;+++++#.##;;;#rrrrrr;;rrrr;rrrrrr###########;;;-...$$.;..r+",
"rrrrr###########;;;rrrrrrrrrrrrrrrrrrrrrrrrrrrrrr;;;r;;;rrrrrrrr"
};
