/* XPM */
static char *_1d16ef6d653477ee5ddee55436b82f0Xt2gxStoJw1vlgT1[] = {
/* columns rows colors chars-per-pixel */
"64 64 45 1 ",
"  c #181C37",
". c #043B5D",
"X c #29344F",
"o c #174F70",
"O c #384964",
"+ c #853C42",
"@ c #885058",
"# c #AD544C",
"$ c #29A638",
"% c #469737",
"& c #4DB933",
"* c #B6D927",
"= c #FAB66A",
"- c #AB6C89",
"; c #018192",
": c #158C9E",
"> c #6B96AA",
", c #719FB3",
"< c #64A1B8",
"1 c #6BA8BF",
"2 c #00B7EF",
"3 c #14BBEF",
"4 c #25BFEF",
"5 c #6ABDCF",
"6 c #34C2EF",
"7 c #63CDEB",
"8 c #6ACEEB",
"9 c #6ACEEC",
"0 c #70CFEC",
"q c #7AD8FA",
"w c #92A1AE",
"e c #CC81A4",
"r c #FFA3B1",
"t c #FBEDBC",
"y c #86CEDF",
"u c #B3DEDE",
"i c #B5DFDD",
"p c #B8DFDC",
"a c #BCE0D9",
"s c #86D4EA",
"d c #88D5EA",
"f c #99D9EA",
"g c #A2DBE6",
"h c #A4DBE5",
"j c #EFEAC3",
/* pixels */
"qqqqqqqqqqqqqqqqqqqqqqqqqqqqqqqqqqqqqqqqqqqqqqqqqqqqqqqqqqqqqqqq",
"qqqqqqqqqqqqqqqqqqqqqqqqqqqqqqqqqqqqqqqqqqqqqqqqqqqqqqqqqqqqqqqq",
"qqqqqqqqqqqqqqqqqqqqqqqqqqqqqqqqqqqqqqqqqqqqqqqqqqqqqqqqqqqqqqqq",
"qqqqqqqqqqqqqqqqqqqqqqqqqqqqqqqqqqqqqqqqqqqqqqqqqqqqqqqqqqqqqqqq",
"qqqqqqqqqqqqqqqqqqqqqqqqqqqqqqqqqqqqqqqqqqqqqqqqqqqqqqqqqqqqqqqq",
"qqqqqqqqqqqqqqqqqqqqqqqqqqqqqqqqqqqqqqqqqqqqqqqqqqqqqqqqqqqqqqqq",
"qqqqqqqqqqqqqqqqqqqqqqqqqqqqqqqqqqqqqqqqqqqqqqqqqqqqqqqqqqqqqqqq",
"qqqqqqqqqqqqqqqqqqqqqqqqqqqqqqqqqqqqqqqqqqqqqqqqqqqqqqqqqqqqqqqq",
"qqqqqqqqqqqqqqqqqqqqqqqqqqqqqqqqqqqqqqqqqqqqqqqqqqqqqqqqqqqqqqqq",
"qqqqqqqqqqqqqqqqqqqqqqqqqqqrqqqqqqqqqqeqqqqqqqqqqqqqqqqqqqqqqqqq",
"qqqqqeqqqqqqqqqqqqqqrrrrrrrrqqqqqqqqqrrrrr---eqqqqqqqqqqqqqqqqqq",
"qqqqrrrrr---eqqqqqqqqq;;;rrre--qqqqrrrree...qqqqqqqqqqqqqqrqqqqq",
"qqrrrree...qqqqqqqqqqq;;;rrre--qqqqrrrree...qqqqqqqrrrrrrrrqqqqq",
"qqrrrree...qqqqqqqqqqqqqq;;;ree;qqrrrr...qqqqqqqqqqqq;;;rrre--qq",
"qrrrr...qqqqqqqqqqqqqqqqqqqqrrreqqrrr.qqqqqqqqqqqqqqq;;;rrre--qq",
"qrrr.qqqqqqqqqqqqqqqqqqqqqq..rr;eer....qqqqqqqqqqqqqqqqq;;;ree;q",
"er....qqqqqqqqqqqqqqrrrrr;;ee..e..;...rrreqqeeqqqqqqqqqqqqqrrr-q",
".;...rrreqqeeqqqqqqqrrrrr;;ee..e..;...rrreqqeeqqqqqqqqqqqq..rr;e",
".;...rrreqqeeqqrrrrrrrrrree. ;;e;;e    rrr;;;;qqeqqrrrrr;;e-..r.",
";e    rrr;;;;qqeqrrre...rrrr;  .ee   .eee... .--qqqrrrrr;;e-..r.",
"e   .ree... .eeee;;;.r......e.. .. ..e......e.rrrrrrrrrree. ;;e;",
". ..e......r...;.qrrrrrrr..e... ..   ....---;rrrrrre...rrrr;  .e",
".   ....eee;rrr ;;rrrreee--.   .      ....;;;-rr;;;.r......e.. .",
"     ....;;;errr..rrrreee--.   .      ....;;;e..rrrrrrrr..e... .",
"     ....;;;errr..eer;;;...;;ee   ;rrre;;....;--rrrrreee--.   . ",
" ;rrre;;....eee;re  .   .ee-;...  eeerrrr;   ;  rrrrreee--.   . ",
" reerrrr;   .  ;;;  .rrrr---;..   .eeereer..e eereer;;;...;;ee  ",
" .eeereee..r   .;;;qq;rrr--..      ...e..r...rrre  .   .rre;... ",
"  ...e..e...qqe   ;qq;rrr--..      ...e..r...ree.  .rrrreee;..  ",
"  ...e..e...qqe   ;q;rrrr..    +  +   .;;.ee.e..q  ;;rrree..    ",
" +   .;;.ee..22   ;;rrrr-   2  ++++  2   ...ee..222;;rrree..    ",
"++  2   ...e.22222;;;r--.  22   ++   22  ...ee..222;rrrr..    + ",
"+   22  ...e.22222;;r....   222#  +222   2...;  2;;rrrre   2  ++",
" +222X  2...;22222;;r....   222#  +222   2...;222;;;ree.  22   +",
" +232  X2..o;23223;;..  223 222 ++ 222 22222 ;222;;r....   222# ",
"+ 332,22332 :22322;;-. XX222222+## 2223322 X .223;;r.... XX222# ",
"# 2733273XO,o20328;:eo X3272232=##+233222322 .322;;..  332 222 +",
"#+722f27382 <2272322:o277232222+== 3437736372-437;;e.XXO377233+#",
"= 2fffffd77fe8f39f3s;13722f2723=##+27723272223722;;e.  7722222=#",
"#+2ffffff2fffffffff2y.2f2fff27f=##+772ffss3f4d28f20:o7773ff773@=",
"#+3fffffffffffffffff77fffffff7f#== 22ffff7fff77fff2y.222ffff77=#",
"=>fffffffffffffffffffffffffffff=++ 2fffffffffffffff5.f2ffffff7=#",
"+ thaitffffffhftjffffffffffffft#==+jjffffffff3ffff72fff3ffff22#=",
"=+tttiagafffaaiaiifffttfaiitttt=++wattffffffsfffffpfffffaffjjt=+",
"++ttttajtafjjaiaaptfaiaittjtaat=+++tahgifffijtffftjtfffahgittt#=",
"++ttttttaaittttttaaitttjtaatttt#== ttajjafautaafjiaatftjtjjaha=+",
"= ttttttttjtaatttttjtaatttttttt=##+ttttaaitttaaitttaaitttttttt=+",
"#+ttttttttttttttttttttttttttttt#++ ttttttjtaattjtaattjtaattttt#=",
"+ ttttttttttttttttttttttttttttt=##+ttttttttttttttttttttttttttt=#",
"#+ttttttttttttttttttttttttttttt#==+ttttttttttttttttttttttttttt#+",
"=+ttttttttttttttttttttttttttttt#==+ttttttttttttttttttttttttttt=#",
"=+ttttttttttttttttttttttttttttt=++ ttttttttttttttttttttttttttt#=",
"+ ttttttttttttttttttttttttttttt#==+ttttttttttttttttttttttttttt#=",
"=+ttttttttttttttttttttttttttttt=## ttt&ttttttttttttttttttttttt=+",
"# ttt&tttttttttttttttt&&ttt&ttt+   tttt..t$$tttttttttttttttttt#=",
"  tttt..t$$ttttttttttt&&ttt&ttt+   tttt..t$$tttttttttttttttttt=#",
"  tttt..t$$tttttttttttttttt*;tt=##+tt....t..ttttttttt&&ttt&ttt+ ",
"#+tt....t..tttttttttt&..t**.*$$+++ ..&....&&.tttttttt&&ttt&ttt+ ",
"+ ..&....&&.tttttt&&tt**.**&.$$+++   .%..%..&.tttttttttttt*;tt=#",
"+   .%..%..&.tttttttt*...$$.=..t++t..%.==....ttt.ttt&..t**.*$$++",
"+t..%.==....ttt.ttttt*...$$.=..t++t..%.==....ttt.&&tt**.**&.$$++",
"+t..%.==....ttt.tt===t===ttttttttt#tt==+++++#.##===#*...$$.=..t+",
"t#tt==+++++#.##===#tttttt==tttt=tttttt###########===*...$$.=..t+",
"ttttt###########===tttttttttttttttttttttttttttttt===t===tttttttt"
};
