/* XPM */
static char *fd7bf750b7674c08d65b3100d5454836tQPeCBs5QweZEt9v[] = {
/* columns rows colors chars-per-pixel */
"64 64 45 1 ",
"  c #181C37",
". c #690021",
"X c #043B5D",
"o c #29344F",
"O c #174F70",
"+ c #384964",
"@ c #990030",
"# c #ED1C24",
"$ c #853C42",
"% c #885058",
"& c #AD544C",
"* c #29A638",
"= c #469737",
"- c #4DB933",
"; c #B6D927",
": c #FAB66A",
"> c #018192",
", c #158C9E",
"< c #6B96AA",
"1 c #719FB3",
"2 c #64A1B8",
"3 c #6BA8BF",
"4 c #00B7EF",
"5 c #14BBEF",
"6 c #25BFEF",
"7 c #6ABDCF",
"8 c #34C2EF",
"9 c #63CDEB",
"0 c #6ACEEB",
"q c #6ACEEC",
"w c #70CFEC",
"e c #7AD8FA",
"r c #92A1AE",
"t c #FBEDBC",
"y c #86CEDF",
"u c #B3DEDE",
"i c #B5DFDD",
"p c #B8DFDC",
"a c #BCE0D9",
"s c #86D4EA",
"d c #88D5EA",
"f c #99D9EA",
"g c #A2DBE6",
"h c #A4DBE5",
"j c #EFEAC3",
/* pixels */
"eeeeeeeeeeeeeeeeeeeeeeeeeeeeeeeeeeeeeeeeeeeeeeeeeeeeeeeeeeeeeeee",
"eeeeeeeeeeeeeeeeeeeeeeeeeeeeeeeeeeeeeeeeeeeeeeeeeeeeeeeeeeeeeeee",
"eeeeeeeeeeeeeeeeeeeeeeeeeeeeeeeeeeeeeeeeeeeeeeeeeeeeeeeeeeeeeeee",
"eeeeeeeeeeeeeeeeeeeeeeeeeeeeeeeeeeeeeeeeeeeeeeeeeeeeeeeeeeeeeeee",
"eeeeeeeeeeeeeeeeeeeeeeeeeeeeeeeeeeeeeeeeeeeeeeeeeeeeeeeeeeeeeeee",
"eeeeeeeeeeeeeeeeeeeeeeeeeeeeeeeeeeeeeeeeeeeeeeeeeeeeeeeeeeeeeeee",
"eeeeeeeeeeeeeeeeeeeeeeeeeeeeeeeeeeeeeeeeeeeeeeeeeeeeeeeeeeeeeeee",
"eeeeeeeeeeeeeeeeeeeeeeeeeeeeeeeeeeeeeeeeeeeeeeeeeeeeeeeeeeeeeeee",
"eeeeeeeeeeeeeeeeeeeeeeeeeeeeeeeeeeeeeeeeeeeeeeeeeeeeeeeeeeeeeeee",
"eeeeeeeeeeeeeeeeeeeeeeeeeee#eeeeeeeeee@eeeeeeeeeeeeeeeeeeeeeeeee",
"eeeee@eeeeeeeeeeeeee########eeeeeeeee#####@@@.eeeeeeeeeeeeeeeeee",
"eeee#####@@@.eeeeeeeee>>>###@..eeee####@@XXXeeeeeeeeeeeeee#eeeee",
"ee####@@XXXeeeeeeeeeee>>>###@..eeee####@@XXXeeeeeee########eeeee",
"ee####@@XXXeeeeeeeeeeeeee>>>#@@>ee####XXXeeeeeeeeeeee>>>###@..ee",
"e####XXXeeeeeeeeeeeeeeeeeeee###.ee###Xeeeeeeeeeeeeeee>>>###@..ee",
"e###XeeeeeeeeeeeeeeeeeeeeeeXX##>@@#XXXXeeeeeeeeeeeeeeeee>>>#@@>e",
"@#XXXXeeeeeeeeeeeeee#####>>#.XX#XX>XXX###@ee@@eeeeeeeeeeeee###.e",
"X>XXX###@ee@@eeeeeee#####>>#.XX#XX>XXX###@ee@@eeeeeeeeeeeeXX##>@",
"X>XXX###@ee@@ee##########@@X >>@>>@    ###>>>>ee@ee#####>>#@XX#X",
">@    ###>>>>ee@e###.XXX####>  X@@   X#@@XXX X@@eee#####>>#@XX#X",
"@   X#@@XXX X@@##>>>X#XXXXXX@XX XX XX@XXXXXX#X##########@@X >>@>",
"X XX@XXXXXX#XXX>Xe#######XX@XXX XX   XXXX@@@>######@XXX####>  X@",
"X   XXXX@@@>### >>####@@@..X   X      XXXX>>>@##>>>X#XXXXXX@XX X",
"     XXXX>>>@###XX####@@@..X   X      XXXX>>>#XX########XX@XXX X",
"     XXXX>>>@###XX@@#>>>XXX>>@@   >###@>>XXXX>@@#####@@@..X   X ",
" >###@>>XXXX@@@>#@  X   X##@>XXX  #@@####>   >  #####@@@..X   X ",
" #@@####>   X  >>>  X####@@@>XX   X@@.#@@#XX# @@#@@#>>>XXX>>@@  ",
" X@@@#@@#XX#   X>>>ee>###@@XX      XXX@XX#XXX###@  X   X##.>XXX ",
"  XXX@XX#XXXee@   >ee>###@@XX      XXX@XX#XXX#@@X  X####@@@>XX  ",
"  XXX@XX#XXXee@   >e>####XX    $  $   X>>X@@X@XXe  >>###@@XX    ",
" $   X>>X@@XX44   >>####@   4  $$$$  4   XXX@@XX444>>###@@XX    ",
"$$  4   XXX@X44444>>>#@@X  44   $$   44  XXX@@XX444>####XX    $ ",
"$   44  XXX@X44444>>#XXXX   444&  $444   4XXX>  4>>####@   4  $$",
" $444o  4XXX>44444>>#XXXX   444&  $444   4XXX>444>>>#@@X  44   $",
" $454  o4XXO>45445>>XX  445 444 $$ 444 44444 >444>>#XXXX   444& ",
"$ 554144554 ,44544>>@X oo444444$&& 4445544 o X445>>#XXXX oo444& ",
"& 4955495o+1O4w540>,@O o5494454:&&$455444544 X544>>XX  554 444 $",
"&$944f49504 24494544,O499454444$:: 5659958594@659>>@Xoo+599455$&",
": 4fffffd99f@0f5qf5s>35944f4945:&&$49945494445944>>@X  9944444:&",
"&$4ffffff4fffffffff4yX4f4fff49f:&&$994ffss5f6d40f4w,O9995ff995%:",
"&$5fffffffffffffffff99fffffff9f&:: 44ffff9fff99fff4yX444ffff99:&",
":<fffffffffffffffffffffffffffff:$$ 4fffffffffffffff7Xf4ffffff9:&",
"$ thaitffffffhftjffffffffffffft&::$jjffffffff5ffff94fff5ffff44&:",
":$tttiagafffaaiaiifffttfaiitttt:$$rattffffffsfffffpfffffaffjjt:$",
"$$ttttajtafjjaiaaptfaiaittjtaat:$$$tahgifffijtffftjtfffahgittt&:",
"$$ttttttaaittttttaaitttjtaatttt&:: ttajjafautaafjiaatftjtjjaha:$",
": ttttttttjtaatttttjtaatttttttt:&&$ttttaaitttaaitttaaitttttttt:$",
"&$ttttttttttttttttttttttttttttt&$$ ttttttjtaattjtaattjtaattttt&:",
"$ ttttttttttttttttttttttttttttt:&&$ttttttttttttttttttttttttttt:&",
"&$ttttttttttttttttttttttttttttt&::$ttttttttttttttttttttttttttt&$",
":$ttttttttttttttttttttttttttttt&::$ttttttttttttttttttttttttttt:&",
":$ttttttttttttttttttttttttttttt:$$ ttttttttttttttttttttttttttt&:",
"$ ttttttttttttttttttttttttttttt&::$ttttttttttttttttttttttttttt&:",
":$ttttttttttttttttttttttttttttt:&& ttt-ttttttttttttttttttttttt:$",
"& ttt-tttttttttttttttt--ttt-ttt$   ttttXXt**tttttttttttttttttt&:",
"  ttttXXt**ttttttttttt--ttt-ttt$   ttttXXt**tttttttttttttttttt:&",
"  ttttXXt**tttttttttttttttt;>tt:&&$ttXXXXtXXttttttttt--ttt-ttt$ ",
"&$ttXXXXtXXtttttttttt-XXt;;X;**$$$ XX-XXXX--Xtttttttt--ttt-ttt$ ",
"$ XX-XXXX--Xtttttt--tt;;X;;-X**$$$   X=XX=XX-Xtttttttttttt;>tt:&",
"$   X=XX=XX-Xtttttttt;XXX**X:XXt$$tXX=X::XXXXtttXttt-XXt;;X;**$$",
"$tXX=X::XXXXtttXttttt;XXX**X:XXt$$tXX=X::XXXXtttX--tt;;X;;-X**$$",
"$tXX=X::XXXXtttXtt:::t:::ttttttttt&tt::$$$$$&X&&:::&;XXX**X:XXt$",
"t&tt::$$$$$&X&&:::&tttttt::tttt:tttttt&&&&&&&&&&&:::;XXX**X:XXt$",
"ttttt&&&&&&&&&&&:::tttttttttttttttttttttttttttttt:::t:::tttttttt"
};
