/* XPM */
static char *c5b11eb5cbcf4c4dc7ad77834dc9b2a6IN2UZ00HQdw2Sutf[] = {
/* columns rows colors chars-per-pixel */
"64 64 45 1 ",
"  c #181C37",
". c #043B5D",
"X c #29344F",
"o c #174F70",
"O c #384964",
"+ c #853C42",
"@ c #885058",
"# c #AD544C",
"$ c #29A638",
"% c #469737",
"& c #4DB933",
"* c #B6D927",
"= c #FFC20E",
"- c #FFF200",
"; c #D6CB29",
": c #FAB66A",
"> c #018192",
", c #158C9E",
"< c #6B96AA",
"1 c #719FB3",
"2 c #64A1B8",
"3 c #6BA8BF",
"4 c #00B7EF",
"5 c #14BBEF",
"6 c #25BFEF",
"7 c #6ABDCF",
"8 c #34C2EF",
"9 c #63CDEB",
"0 c #6ACEEB",
"q c #6ACEEC",
"w c #70CFEC",
"e c #7AD8FA",
"r c #92A1AE",
"t c #FBEDBC",
"y c #86CEDF",
"u c #B3DEDE",
"i c #B5DFDD",
"p c #B8DFDC",
"a c #BCE0D9",
"s c #86D4EA",
"d c #88D5EA",
"f c #99D9EA",
"g c #A2DBE6",
"h c #A4DBE5",
"j c #EFEAC3",
/* pixels */
"eeeeeeeeeeeeeeeeeeeeeeeeeeeeeeeeeeeeeeeeeeeeeeeeeeeeeeeeeeeeeeee",
"eeeeeeeeeeeeeeeeeeeeeeeeeeeeeeeeeeeeeeeeeeeeeeeeeeeeeeeeeeeeeeee",
"eeeeeeeeeeeeeeeeeeeeeeeeeeeeeeeeeeeeeeeeeeeeeeeeeeeeeeeeeeeeeeee",
"eeeeeeeeeeeeeeeeeeeeeeeeeeeeeeeeeeeeeeeeeeeeeeeeeeeeeeeeeeeeeeee",
"eeeeeeeeeeeeeeeeeeeeeeeeeeeeeeeeeeeeeeeeeeeeeeeeeeeeeeeeeeeeeeee",
"eeeeeeeeeeeeeeeeeeeeeeeeeeeeeeeeeeeeeeeeeeeeeeeeeeeeeeeeeeeeeeee",
"eeeeeeeeeeeeeeeeeeeeeeeeeeeeeeeeeeeeeeeeeeeeeeeeeeeeeeeeeeeeeeee",
"eeeeeeeeeeeeeeeeeeeeeeeeeeeeeeeeeeeeeeeeeeeeeeeeeeeeeeeeeeeeeeee",
"eeeeeeeeeeeeeeeeeeeeeeeeeeeeeeeeeeeeeeeeeeeeeeeeeeeeeeeeeeeeeeee",
"eeeeeeeeeeeeeeeeeeeeeeeeeee-eeeeeeeeee;eeeeeeeeeeeeeeeeeeeeeeeee",
"eeeee;eeeeeeeeeeeeee--------eeeeeeeee-----===;eeeeeeeeeeeeeeeeee",
"eeee-----===;eeeeeeeee>>>---;==eeee----;;...eeeeeeeeeeeeee-eeeee",
"ee----;;...eeeeeeeeeee>>>---;==eeee----;;...eeeeeee--------eeeee",
"ee----;;...eeeeeeeeeeeeee>>>-;;>ee----...eeeeeeeeeeee>>>---;==ee",
"e----...eeeeeeeeeeeeeeeeeeee---;ee---.eeeeeeeeeeeeeee>>>---;==ee",
"e---.eeeeeeeeeeeeeeeeeeeeee..-->;;-....eeeeeeeeeeeeeeeee>>>-;;>e",
";-....eeeeeeeeeeeeee----->>;;..=..>...---;ee;;eeeeeeeeeeeee---=e",
".>...---;ee;;eeeeeee----->>;;..=..>...---;ee;;eeeeeeeeeeee..-->;",
".>...---;ee;;ee----------;;. >>;>>;    --->>>>ee;ee----->>;=..-.",
">;    --->>>>ee;e---;...---->  .;;   .*;;... .==eee----->>;=..-.",
";   .-;;... .;;**>>>.-......;.. .. ..;......;.----------;;. >>;>",
". ..;......-...>.e-------..;... ..   ....===>------;...---->  .;",
".   ....;;;>--- >>----;;;==.   .      ....>>>=-->>>.-......;.. .",
"     ....>>>;---..----;;;==.   .      ....>>>*..--------..;... .",
"     ....>>>;---..;;->>>...>>;;   >---;>>....>==-----;;;==.   . ",
" >---;>>....;;;>-;  .   .;;=>...  ;==---->   >  -----;;;==.   . ",
" -;;---->   .  >>>  .----===>..   .===-;;-..; ;;-;;->>>...>>;;  ",
" .;;;-;;;..-   .>>>ee>---==..      ...;..-...---;  .   .--;>... ",
"  ...;..;...ee;   >ee>---==..      ...;..-...-;;.  .----;;;>..  ",
"  ...;..;...ee;   >e>----..    +  +   .>>.;;.;..e  >>---;;..    ",
" +   .>>.;;..44   >>----=   4  ++++  4   ...;;..444>>---;;..    ",
"++  4   ...;.44444>>>-==.  44   ++   44  ...;;..444>----..    + ",
"+   44  ...;.44444>>-....   444#  +444   4...>  4>>----;   4  ++",
" +444X  4...>44444>>-....   444#  +444   4...>444>>>-;;.  44   +",
" +454  X4..o>45445>>..  445 444 ++ 444 44444 >444>>-....   444# ",
"+ 554144554 ,44544>>=. XX444444+## 4445544 X .445>>-.... XX444# ",
"# 4955495XO1o4w540>,;o X5494454:##+455444544 .544>>..  554 444 +",
"#+944f49504 24494544,o499454444+:: 5659958594=659>>;.XXO599455+#",
": 4fffffd99f=0f5qf5s>35944f4945:##+49945494445944>>;.  9944444:#",
"#+4ffffff4fffffffff4y.4f4fff49f:##+994ffss5f6d40f4w,o9995ff995@:",
"#+5fffffffffffffffff99fffffff9f#:: 44ffff9fff99fff4y.444ffff99:#",
":<fffffffffffffffffffffffffffff:++ 4fffffffffffffff7.f4ffffff9:#",
"+ thaitffffffhftjffffffffffffft#::+jjffffffff5ffff94fff5ffff44#:",
":+tttiagafffaaiaiifffttfaiitttt:++rattffffffsfffffpfffffaffjjt:+",
"++ttttajtafjjaiaaptfaiaittjtaat:+++tahgifffijtffftjtfffahgittt#:",
"++ttttttaaittttttaaitttjtaatttt#:: ttajjafautaafjiaatftjtjjaha:+",
": ttttttttjtaatttttjtaatttttttt:##+ttttaaitttaaitttaaitttttttt:+",
"#+ttttttttttttttttttttttttttttt#++ ttttttjtaattjtaattjtaattttt#:",
"+ ttttttttttttttttttttttttttttt:##+ttttttttttttttttttttttttttt:#",
"#+ttttttttttttttttttttttttttttt#::+ttttttttttttttttttttttttttt#+",
":+ttttttttttttttttttttttttttttt#::+ttttttttttttttttttttttttttt:#",
":+ttttttttttttttttttttttttttttt:++ ttttttttttttttttttttttttttt#:",
"+ ttttttttttttttttttttttttttttt#::+ttttttttttttttttttttttttttt#:",
":+ttttttttttttttttttttttttttttt:## ttt&ttttttttttttttttttttttt:+",
"# ttt&tttttttttttttttt&&ttt&ttt+   tttt..t$$tttttttttttttttttt#:",
"  tttt..t$$ttttttttttt&&ttt&ttt+   tttt..t$$tttttttttttttttttt:#",
"  tttt..t$$tttttttttttttttt*>tt:##+tt....t..ttttttttt&&ttt&ttt+ ",
"#+tt....t..tttttttttt&..t**.*$$+++ ..&....&&.tttttttt&&ttt&ttt+ ",
"+ ..&....&&.tttttt&&tt**.**&.$$+++   .%..%..&.tttttttttttt*>tt:#",
"+   .%..%..&.tttttttt*...$$.:..t++t..%.::....ttt.ttt&..t**.*$$++",
"+t..%.::....ttt.ttttt*...$$.:..t++t..%.::....ttt.&&tt**.**&.$$++",
"+t..%.::....ttt.tt:::t:::ttttttttt#tt::+++++#.##:::#*...$$.:..t+",
"t#tt::+++++#.##:::#tttttt::tttt:tttttt###########:::*...$$.:..t+",
"ttttt###########:::tttttttttttttttttttttttttttttt:::t:::tttttttt"
};
